 <svg  version="1.0" xmlns="http://www.w3.org/2000/svg"  width="300.000000pt" height="534.000000pt" viewBox="0 0 300.000000 534.000000"  preserveAspectRatio="xMidYMid meet">  <g transform="translate(0.000000,534.000000) scale(0.100000,-0.100000)" fill="#ffffff" stroke="none"> <path d="M795 4998 c12 -9 34 -35 49 -57 26 -37 66 -56 66 -31 0 6 -7 10 -16 10 -9 0 -24 10 -34 22 -15 19 -15 24 -4 36 8 7 31 13 52 12 20 -1 42 -1 47 -1 8 1 876 0 1025 -1 25 0 50 1 55 2 6 1 15 1 20 0 6 -1 27 -1 47 0 21 1 47 -2 59 -5 21 -7 21 -8 -7 -34 l-29 -26 -545 -5 -545 -5 549 -5 549 -5 56 55 56 55 -736 0 c-689 0 -734 -1 -714 -17z"/> <path d="M1395 4889 c-77 -9 142 -8 255 1 89 7 86 8 -55 6 -82 0 -172 -4 -200 -7z"/> <path d="M1802 4894 c3 -3 54 -5 114 -5 59 0 118 -2 130 -5 15 -4 30 -24 48 -64 29 -64 31 -82 15 -131 -15 -44 -34 -66 -88 -101 -83 -53 -159 -27 -176 60 -5 29 2 52 42 120 1 2 19 10 40 18 37 15 37 15 5 10 -18 -3 -48 -17 -67 -32 -53 -40 -111 -179 -76 -179 8 0 16 -6 19 -12 3 -10 -25 -13 -117 -13 -118 0 -121 1 -137 25 -12 18 -15 38 -11 66 6 47 -1 46 -13 -3 -4 -18 -9 -40 -11 -48 -2 -8 2 -14 10 -15 22 0 25 -23 4 -28 -10 -3 12 -5 49 -6 100 -2 321 -22 337 -31 9 -5 2 -9 -21 -14 -41 -8 -64 -29 -73 -71 -12 -48 -33 -75 -60 -75 -45 0 -26 -17 26 -23 53 -7 74 -16 51 -24 -10 -4 -10 -8 -1 -19 9 -11 7 -15 -7 -21 -16 -6 -16 -7 2 -14 10 -4 -42 -9 -116 -10 l-135 -3 125 -6 c80 -3 119 -8 107 -14 -15 -7 -16 -19 -13 -95 3 -47 7 -408 11 -801 3 -393 8 -870 11 -1060 4 -190 8 -498 9 -685 2 -187 4 -352 4 -367 1 -22 6 -28 24 -28 17 -1 19 -2 7 -9 -25 -15 -168 -39 -275 -46 -151 -11 -130 -19 28 -11 122 6 183 13 277 31 24 5 24 4 6 -9 -10 -9 -16 -22 -13 -30 16 -40 -63 -60 -278 -71 -142 -7 -445 10 -530 29 -63 15 -79 14 -48 -2 38 -20 166 -33 388 -39 213 -5 319 1 439 24 27 6 29 4 19 -9 -7 -8 -10 -18 -6 -21 3 -4 -3 -7 -15 -7 -12 0 -22 -4 -22 -10 0 -5 8 -10 17 -10 21 0 6 -16 -22 -23 -15 -3 -12 -5 10 -7 17 -1 37 -3 45 -4 8 -2 35 -3 59 -4 28 -1 41 -6 35 -11 -13 -13 -171 -41 -230 -41 -70 0 -184 -12 -184 -19 0 -11 305 8 381 23 95 20 91 21 88 -11 -1 -16 1 -38 5 -51 5 -14 3 -28 -3 -36 -31 -37 -285 -67 -571 -67 -302 0 -467 15 -547 51 -48 21 -50 9 -2 -15 117 -61 867 -74 1099 -19 64 15 65 14 83 -7 9 -12 17 -16 17 -10 0 18 -29 71 -39 71 -5 0 -6 19 -4 43 5 41 3 45 -40 80 -25 20 -59 40 -76 43 -22 5 -33 14 -40 37 -15 41 -14 62 4 77 22 18 19 35 -19 84 l-33 44 -9 1343 c-12 1831 -14 1663 14 1691 28 30 28 35 -3 64 -29 27 -32 67 -11 119 15 35 47 48 61 25 14 -22 35 -10 35 20 0 19 5 30 13 28 21 -4 57 13 57 26 0 7 17 31 38 53 62 65 77 145 41 220 -20 42 -21 45 -4 63 20 22 14 25 -15 10 -13 -7 -21 -7 -25 0 -4 6 -60 10 -137 10 -72 0 -129 -2 -126 -6z m38 -282 c0 -7 12 -24 28 -37 26 -23 26 -24 6 -25 -12 0 -32 8 -44 18 -19 15 -21 24 -15 51 5 25 10 30 16 20 5 -8 9 -20 9 -27z"/> <path d="M920 4880 c19 -5 41 -5 49 -1 8 5 -6 8 -35 9 -47 0 -47 -1 -14 -8z"/> <path d="M1168 4883 c12 -2 30 -2 40 0 9 3 -1 5 -23 4 -22 0 -30 -2 -17 -4z"/> <path d="M1253 4883 c15 -2 37 -2 50 0 12 2 0 4 -28 4 -27 0 -38 -2 -22 -4z"/> <path d="M890 4855 c0 -8 5 -15 11 -15 5 0 8 4 5 9 -4 5 0 12 6 14 8 3 6 6 -4 6 -10 1 -18 -6 -18 -14z"/> <path d="M980 4857 c-44 -15 -80 -75 -80 -135 0 -77 54 -149 126 -168 37 -10 98 15 147 60 l48 44 -18 29 c-10 16 -27 43 -38 60 -19 31 -53 53 -78 53 -7 -1 -2 -6 11 -14 33 -18 62 -66 62 -103 0 -51 -57 -108 -109 -111 -35 -2 -45 2 -79 36 -21 21 -42 53 -45 69 -13 65 28 136 94 163 22 10 27 15 17 21 -16 11 -15 11 -58 -4z m208 -213 c-14 -14 -15 -14 -10 11 3 19 8 23 15 16 8 -8 7 -16 -5 -27z"/> <path d="M1490 4861 c-22 -6 -84 -80 -75 -89 6 -6 37 14 37 24 1 29 56 72 72 57 3 -4 6 -1 6 5 0 13 -3 13 -40 3z"/> <path d="M1197 4818 c42 -44 83 -115 83 -143 0 -16 26 -32 36 -22 7 7 -45 120 -60 129 -19 12 -2 17 73 20 40 1 75 7 78 12 4 5 -30 7 -82 4 -85 -6 -135 3 -135 24 0 6 51 8 120 6 66 -1 120 0 120 5 0 4 -62 7 -137 7 l-137 0 41 -42z"/> <path d="M1574 4811 c0 -42 2 -47 13 -33 7 9 13 25 13 36 0 16 2 17 16 5 11 -9 15 -26 12 -56 -3 -42 4 -56 16 -30 3 6 5 3 4 -8 0 -11 4 -31 10 -45 6 -14 11 -19 11 -12 1 15 21 6 21 -8 0 -5 -15 -25 -34 -45 -23 -24 -40 -33 -51 -29 -13 5 -14 8 -3 15 10 7 10 9 1 9 -7 0 -13 9 -13 21 0 13 4 18 13 13 6 -4 9 -4 5 1 -4 4 -2 15 4 23 20 24 19 43 -2 32 -36 -19 -43 -102 -11 -120 37 -19 70 -12 78 18 11 38 80 165 104 190 10 12 19 23 19 25 0 2 -35 1 -78 -1 -70 -4 -79 -2 -97 19 l-20 22 25 -6 c46 -11 196 -10 216 1 15 9 -15 11 -126 12 l-145 0 -1 -49z m164 -68 c-17 -32 -32 -59 -33 -60 0 -1 -10 0 -22 3 -18 5 -20 10 -13 35 5 16 5 31 0 34 -7 4 -7 22 -1 43 1 1 24 2 51 2 l50 0 -32 -57z"/> <path d="M1533 4817 c-6 -12 -16 -48 -23 -79 -7 -32 -17 -55 -22 -52 -4 3 -8 1 -8 -4 0 -6 7 -13 15 -16 11 -4 17 3 22 24 3 17 9 33 14 36 4 2 6 11 3 18 -3 8 1 27 10 43 8 16 11 35 7 41 -5 9 -11 6 -18 -11z"/> <path d="M1955 4819 c61 -10 85 -36 85 -91 0 -80 -97 -132 -136 -73 -9 14 -14 36 -12 50 3 13 1 22 -3 19 -16 -10 -9 -51 13 -79 19 -24 26 -27 65 -22 82 9 121 74 86 144 -21 45 -54 63 -108 62 -40 -1 -40 -1 10 -10z"/> <path d="M1475 4808 c-3 -7 -1 -26 4 -43 8 -30 8 -29 12 13 4 39 -6 58 -16 30z"/> <path d="M955 4740 c-20 -93 76 -156 150 -98 23 18 26 26 21 56 -15 93 -108 98 -105 5 1 -29 3 -26 13 19 3 15 15 30 27 33 49 16 68 -57 24 -100 -51 -52 -119 -12 -117 70 0 52 -4 57 -13 15z"/> <path d="M1956 4762 c6 -4 16 -16 22 -27 11 -20 11 -20 12 1 0 12 -7 25 -16 28 -21 8 -31 7 -18 -2z"/> <path d="M1381 4733 c-8 -18 -9 -29 -1 -37 5 -5 10 -21 10 -35 0 -19 3 -22 11 -14 9 9 9 19 0 42 -7 16 -10 39 -6 50 9 30 0 26 -14 -6z"/> <path d="M1940 4710 c-6 -12 -9 -24 -7 -27 3 -2 11 5 17 17 6 12 9 24 7 27 -3 2 -11 -5 -17 -17z"/> <path d="M1726 4640 c-8 -16 -11 -30 -6 -30 4 0 13 14 19 30 5 17 8 30 6 30 -2 0 -10 -13 -19 -30z"/> <path d="M1481 4630 c-2 -19 -4 -45 -5 -57 -2 -13 1 -23 6 -23 4 0 8 5 8 11 0 5 5 7 10 4 13 -8 13 18 1 31 -5 5 -11 23 -14 39 -4 29 -4 29 -6 -5z"/> <path d="M1422 4611 c-15 -47 -35 -53 -55 -15 -11 22 -15 24 -20 10 -4 -9 -2 -16 3 -16 6 0 10 -4 10 -9 0 -4 -12 -8 -27 -9 -53 0 -63 -2 -63 -12 0 -5 15 -8 33 -6 17 3 53 5 79 5 46 1 47 2 54 35 9 53 0 64 -14 17z"/> <path d="M1226 4575 c4 -9 0 -15 -10 -15 -9 0 -16 -5 -16 -10 0 -7 6 -7 18 -2 9 5 23 7 30 5 16 -6 15 5 -2 23 -19 18 -27 18 -20 -1z"/> <path d="M1103 4543 c15 -2 37 -2 50 0 12 2 0 4 -28 4 -27 0 -38 -2 -22 -4z"/> <path d="M1001 4493 c-1 -29 2 -33 26 -33 32 0 64 26 56 46 -7 18 -23 18 -23 0 0 -7 -9 -16 -21 -19 -14 -4 -23 1 -29 16 -8 19 -9 18 -9 -10z"/> <path d="M1245 4510 c-4 -7 59 -10 182 -10 103 -1 214 -3 246 -7 64 -6 80 11 20 21 -64 10 -441 7 -448 -4z"/> <path d="M1155 4500 c-4 -6 6 -7 27 -3 44 8 48 13 10 13 -17 0 -34 -4 -37 -10z"/> <path d="M1666 4283 c-1 -1 -100 -3 -220 -3 -120 -1 -216 -4 -213 -6 3 -3 94 -7 203 -9 195 -5 304 1 304 14 0 6 -68 9 -74 4z"/> <path d="M1108 4263 c18 -2 45 -2 60 0 15 2 0 4 -33 4 -33 0 -45 -2 -27 -4z"/> <path d="M1130 4241 c-34 -6 350 -3 400 3 14 2 -63 3 -170 3 -107 0 -211 -2 -230 -6z"/> <path d="M1656 4214 c-8 -21 -8 -983 1 -2116 6 -895 7 -906 26 -899 19 7 19 17 16 262 -1 140 -3 400 -4 579 -1 179 -3 453 -4 610 -2 210 1 286 10 289 8 2 8 5 0 11 -9 5 -12 167 -12 643 0 529 -2 637 -13 637 -8 0 -17 -7 -20 -16z"/> <path d="M1334 4207 c-3 -8 -3 -45 -1 -83 l3 -69 2 72 c2 68 3 72 30 81 l27 10 -28 1 c-15 1 -30 -5 -33 -12z"/> <path d="M1442 4203 c-13 -26 -20 -2997 -7 -3000 12 -3 12 91 15 1767 2 663 5 1211 8 1218 2 8 14 18 26 22 19 8 19 9 -6 9 -16 1 -31 -6 -36 -16z"/> <path d="M1553 4208 c-8 -14 -14 -2879 -6 -2965 3 -35 9 -50 17 -47 9 4 11 343 10 1496 -1 1443 -1 1491 17 1509 19 19 18 19 -5 19 -14 0 -28 -6 -33 -12z"/> <path d="M1743 2731 c4 -819 10 -1496 13 -1505 3 -9 17 -16 29 -16 23 0 23 1 8 31 -12 24 -15 74 -16 255 0 124 -4 227 -9 230 -4 3 -8 10 -8 15 0 6 4 8 9 5 8 -5 9 877 1 909 -1 6 -1 15 0 20 1 6 1 89 -1 185 -2 155 -2 217 1 270 0 8 1 193 1 410 0 217 1 459 2 538 2 134 1 142 -17 142 -19 0 -19 -26 -13 -1489z"/> <path d="M1324 3470 c0 -162 2 -229 3 -147 2 81 2 213 0 295 -1 81 -3 14 -3 -148z"/> <path d="M1317 3073 c-7 -106 -10 -929 -3 -922 5 5 17 1019 12 1019 -1 0 -6 -44 -9 -97z"/> <path d="M1309 2038 c-6 -23 -6 -63 1 -85 7 -23 8 -18 9 30 1 31 -1 57 -4 57 -3 0 -5 -1 -6 -2z"/> <path d="M1306 1764 c-10 -78 -7 -554 4 -554 6 0 10 81 9 225 0 123 2 229 6 235 3 5 2 10 -3 10 -5 0 -7 29 -5 65 5 75 -1 86 -11 19z"/> <path d="M1735 1189 c-4 -6 -14 -8 -24 -4 -12 5 -13 3 -4 -5 13 -14 96 -3 87 11 -7 13 -51 11 -59 -2z"/> <path d="M1017 1014 c-13 -18 -14 -22 -3 -18 8 3 17 13 20 21 10 25 3 23 -17 -3z"/> <path d="M1558 1013 c12 -2 32 -2 45 0 12 2 2 4 -23 4 -25 0 -35 -2 -22 -4z"/> <path d="M1756 995 c-3 -8 -1 -15 3 -15 5 0 12 6 14 13 3 7 6 5 6 -6 1 -15 4 -15 21 -5 18 12 19 13 2 20 -28 11 -39 9 -46 -7z"/> <path d="M849 831 c-9 -9 -20 -27 -24 -41 -5 -19 -1 -17 20 13 29 41 30 55 4 28z"/> <path d="M2121 723 c-1 -7 -9 -13 -18 -13 -14 0 -12 -3 6 -13 30 -14 50 -75 29 -88 -9 -6 -9 -9 4 -14 43 -17 46 -2 12 70 -18 39 -33 64 -33 58z"/> <path d="M2175 570 c-4 -7 -2 -16 4 -20 13 -8 21 -177 11 -220 -5 -21 -12 -25 -45 -26 -383 -15 -538 -18 -908 -16 -466 3 -465 3 -462 50 1 13 -2 25 -7 28 -4 3 -6 9 -4 13 6 10 10 138 6 171 -6 42 -15 -171 -10 -225 l5 -50 688 -3 c378 -1 702 1 720 6 l32 8 0 130 c0 124 -12 184 -30 154z"/> <path d="M978 553 c12 -2 30 -2 40 0 9 3 -1 5 -23 4 -22 0 -30 -2 -17 -4z"/> </g> </svg> 